<svg xmlns="http://www.w3.org/2000/svg"  viewBox="0 0 48 48" width="96px" height="96px"><path fill="#38b47b" d="M24.321,4.908C19.138,4.763,14.043,4.187,9.072,5.663C7.665,6.081,6.218,6.639,5.279,7.768 c-1.073,1.29-1.282,3.074-1.382,4.75C3.562,18.148,3.951,23.794,4.34,29.422c0.197,2.853,0.394,5.705,0.591,8.558 c0.139,2.01,0.575,4.439,2.466,5.134c0.599,0.22,1.254,0.215,1.893,0.208c8.777-0.105,17.555-0.211,26.332-0.316 c2.591-0.031,5.088-0.22,6.691-2.256c1.734-2.203,0.996-5.364,0.462-8.116c-0.742-3.824-0.453-7.771-0.047-11.645 c0.261-2.492,0.76-4.977,0.649-7.48c-0.111-2.503-0.931-5.111-2.849-6.725c-2.143-1.803-5.189-2.022-7.984-1.835 C29.748,5.135,27.525,4.998,24.321,4.908z"/><path fill="#010101" d="M8.946,43.824c-0.554,0-1.15-0.031-1.721-0.24c-2.215-0.814-2.654-3.569-2.793-5.57l-0.592-8.558 c-0.384-5.557-0.78-11.304-0.442-16.968c0.101-1.689,0.307-3.61,1.496-5.04C5.933,6.2,7.517,5.604,8.93,5.184 c4.183-1.241,8.512-1.058,12.702-0.877c0.897,0.038,1.799,0.076,2.702,0.102l1.712,0.054C28.4,4.538,30.262,4.6,32.51,4.449 c2.391-0.16,5.863-0.13,8.34,1.952c2.45,2.063,2.947,5.324,3.025,7.085c0.083,1.847-0.16,3.691-0.396,5.477 c-0.092,0.692-0.183,1.386-0.256,2.078c-0.388,3.709-0.704,7.651,0.042,11.498l0.084,0.434c0.535,2.728,1.142,5.818-0.645,8.087 c-1.732,2.201-4.336,2.413-7.077,2.446L9.296,43.821C9.182,43.822,9.064,43.824,8.946,43.824z M17.029,5.175 c-2.654,0-5.242,0.204-7.814,0.968C7.945,6.52,6.53,7.045,5.664,8.087c-0.996,1.197-1.177,2.93-1.268,4.46 c-0.334,5.601,0.061,11.314,0.442,16.841l0.592,8.558c0.119,1.724,0.47,4.086,2.14,4.699c0.52,0.191,1.128,0.18,1.714,0.177 l26.332-0.315c2.488-0.03,4.844-0.211,6.304-2.065c1.501-1.907,0.942-4.759,0.449-7.275l-0.086-0.437 c-0.771-3.98-0.433-8.174-0.054-11.791c0.073-0.702,0.166-1.404,0.259-2.105c0.229-1.742,0.467-3.543,0.389-5.301 c-0.071-1.598-0.513-4.548-2.672-6.364c-1.674-1.407-4.099-1.955-7.629-1.72c-2.295,0.154-4.177,0.092-6.563,0.014l-1.706-0.053 c-0.909-0.025-1.814-0.064-2.718-0.103C20.041,5.239,18.524,5.175,17.029,5.175z"/><path fill="#d6e5e5" d="M18.49,10.618c-1.793,0.033-3.408,0.339-5.198,0.435c-0.558,0.03-1.144,0.068-1.618,0.365 c-0.984,0.617-1.046,2.002-0.996,3.162c0.277,6.446,0.592,13.77,0.945,20.212c0.032,0.59,0.076,1.212,0.408,1.7 c0.59,0.866,1.807,0.962,2.855,0.972c1.81,0.018,3.619,0.035,5.429,0.053c0.654,0.006,1.333,0.008,1.927-0.267 c1.534-0.709,1.742-2.649,1.717-4.339c-0.104-6.836-0.441-14.669-1.011-21.482c-0.019-0.226-0.045-0.468-0.192-0.64 c-0.2-0.234-0.547-0.256-0.855-0.261C20.705,10.508,19.684,10.596,18.49,10.618z"/><path fill="#010101" d="M20.597,37.969c-0.1,0-0.195-0.001-0.288-0.002l-5.428-0.003c-0.802-0.008-2.469-0.023-3.264-1.19 c-0.422-0.619-0.464-1.391-0.494-1.954c-0.35-6.386-0.662-13.64-0.938-20.039l-0.008-0.179c-0.056-1.285,0.033-2.857,1.23-3.607 c0.596-0.374,1.295-0.411,1.856-0.44c0.778-0.042,1.522-0.124,2.264-0.205c0.946-0.104,1.926-0.211,2.952-0.23 c0.459-0.009,0.893-0.027,1.32-0.045c0.691-0.029,1.369-0.061,2.106-0.046c0.302,0.005,0.864,0.014,1.227,0.437 c0.257,0.3,0.289,0.674,0.311,0.922c0.533,6.379,0.902,14.222,1.013,21.518c0.024,1.651-0.156,3.895-2.007,4.751 C21.845,37.933,21.177,37.969,20.597,37.969z M18.498,11.118c-0.98,0.019-1.894,0.118-2.86,0.225 c-0.76,0.083-1.522,0.167-2.32,0.209c-0.47,0.025-1.001,0.053-1.377,0.289c-0.761,0.477-0.808,1.702-0.763,2.718l0.007,0.179 c0.275,6.397,0.588,13.647,0.937,20.027c0.033,0.599,0.077,1.086,0.322,1.446c0.44,0.646,1.437,0.743,2.447,0.753l5.428,0.003 c0.566,0.004,1.208,0.014,1.712-0.221c1.021-0.471,1.46-1.617,1.427-3.827c-0.11-7.275-0.478-15.093-1.009-21.448 c-0.009-0.104-0.026-0.301-0.074-0.356c-0.069-0.08-0.38-0.085-0.482-0.087c-0.721-0.015-1.377,0.016-2.049,0.045 C19.407,11.091,18.966,11.109,18.498,11.118L18.498,11.118z"/><path fill="#d6e5e5" d="M35.383,12.083c-2.258-2.621-7.059-1.634-9.566,0.736c-0.763,0.721-1.386,1.623-1.669,2.647 c-0.383,1.385-0.112,2.905,0.539,4.18c1.357,2.657,4.467,4.277,7.343,3.732c2.876-0.544,5.244-3.272,5.342-6.269 c0.019-0.586-0.042-1.182-0.241-1.731C36.625,13.987,36.341,13.196,35.383,12.083z"/><path fill="#010101" d="M30.883,23.985c-2.695,0-5.357-1.597-6.642-4.11c-0.755-1.479-0.965-3.134-0.576-4.541 c0.287-1.035,0.912-2.03,1.808-2.878c1.677-1.587,4.216-2.543,6.484-2.422c1.588,0.081,2.904,0.677,3.805,1.723 c1.013,1.175,1.319,2.021,1.828,3.424c0.213,0.585,0.305,1.23,0.282,1.945c-0.105,3.192-2.631,6.154-5.75,6.744 C31.712,23.948,31.297,23.985,30.883,23.985z M31.591,11.025c-1.897,0-4.042,0.844-5.431,2.157 c-0.764,0.723-1.293,1.559-1.531,2.418c-0.322,1.169-0.14,2.561,0.503,3.819c1.264,2.473,4.187,3.955,6.805,3.468 c2.678-0.506,4.846-3.051,4.936-5.794c0.019-0.586-0.053-1.106-0.212-1.544c-0.496-1.367-0.764-2.104-1.656-3.141 c-0.907-1.053-2.186-1.33-3.098-1.376C31.802,11.027,31.696,11.025,31.591,11.025z"/><path fill="#d6e5e5" d="M32.586,23.606c-1.935-0.57-4.879,0.286-6.242,1.926c-0.825,0.992-1.183,1.709-1.615,3.594 c-0.299,1.305-0.193,3.101,0.372,4.299c0.846,1.794,2.784,2.534,4.57,2.878c0.954,0.184,1.93,0.301,2.888,0.147 c2.667-0.428,4.879-3.189,4.97-6.203S35.221,24.234,32.586,23.606z"/><path fill="#010101" d="M31.628,36.971c-0.751,0-1.466-0.114-2.052-0.227c-2.546-0.491-4.157-1.473-4.928-3.105 c-0.581-1.233-0.749-3.135-0.407-4.625c0.431-1.879,0.8-2.696,1.718-3.802c1.447-1.741,4.597-2.719,6.756-2.09 c2.978,0.717,5.309,3.983,5.213,7.14c-0.099,3.278-2.367,6.163-5.291,6.633C32.3,36.948,31.96,36.971,31.628,36.971z M31.256,23.928c-1.646,0-3.568,0.769-4.527,1.923c-0.751,0.904-1.093,1.552-1.513,3.386c-0.291,1.271-0.149,2.943,0.337,3.976 c0.625,1.322,2.003,2.123,4.213,2.55c0.766,0.147,1.767,0.299,2.714,0.145c2.425-0.389,4.366-2.907,4.449-5.675 c0.082-2.673-1.949-5.541-4.459-6.14l-0.025-0.007C32.081,23.978,31.678,23.928,31.256,23.928z"/></svg>